HIERARCHY
ROOT Hips
{
    OFFSET 0.000000 0.000000 0.000000
    CHANNELS 6 Xposition Yposition Zposition Zrotation Xrotation Yrotation
    JOINT Spine
    {
        OFFSET -0.000000 0.083210 0.000000
        CHANNELS 3 Zrotation Xrotation Yrotation
        JOINT Spine1
        {
            OFFSET -0.000000 0.256334 0.000000
            CHANNELS 3 Zrotation Xrotation Yrotation
            JOINT Neck
            {
                OFFSET -0.000000 0.275576 0.002912
                CHANNELS 3 Zrotation Xrotation Yrotation
                JOINT Head
                {
                    OFFSET -0.000000 0.157287 0.020295
                    CHANNELS 3 Zrotation Xrotation Yrotation
                    End Site
                    {
                        OFFSET -0.000000 0.202951 0.000000
                    }
                }
            }
            JOINT LeftShoulder
            {
                OFFSET 0.041044 0.235234 -0.000041
                CHANNELS 3 Zrotation Xrotation Yrotation
                JOINT LeftArm
                {
                    OFFSET 0.117964 0.000000 0.000000
                    CHANNELS 3 Zrotation Xrotation Yrotation
                    JOINT LeftForeArm
                    {
                        OFFSET 0.291248 0.000000 0.000000
                        CHANNELS 3 Zrotation Xrotation Yrotation
                        JOINT LeftHand
                        {
                            OFFSET 0.245673 0.000000 0.000000
                            CHANNELS 3 Zrotation Xrotation Yrotation
                            End Site
                            {
                                OFFSET 0.152213 0.000000 0.000000
                            }
                        }
                    }
                }
            }
            JOINT RightShoulder
            {
                OFFSET -0.040052 0.235234 -0.000041
                CHANNELS 3 Zrotation Xrotation Yrotation
                JOINT RightArm
                {
                    OFFSET -0.117964 0.000000 0.000000
                    CHANNELS 3 Zrotation Xrotation Yrotation
                    JOINT RightForeArm
                    {
                        OFFSET -0.291248 0.000000 0.000000
                        CHANNELS 3 Zrotation Xrotation Yrotation
                        JOINT RightHand
                        {
                            OFFSET -0.245673 0.000000 0.000000
                            CHANNELS 3 Zrotation Xrotation Yrotation
                            End Site
                            {
                                OFFSET -0.152213 0.000000 0.000000
                            }
                        }
                    }
                }
            }
        }
    }
    JOINT LeftUpLeg
    {
        OFFSET 0.101475 0.000000 0.000000
        CHANNELS 3 Zrotation Xrotation Yrotation
        JOINT LeftLeg
        {
            OFFSET -0.000000 -0.446535 0.000000
            CHANNELS 3 Zrotation Xrotation Yrotation
            JOINT LeftFoot
            {
                OFFSET -0.000000 -0.400037 0.000000
                CHANNELS 3 Zrotation Xrotation Yrotation
                JOINT LeftToeBase
                {
                    OFFSET -0.000000 -0.065959 0.152213
                    CHANNELS 3 Zrotation Xrotation Yrotation
                    End Site
                    {
                        OFFSET -0.000000 0.000000 0.040590
                    }
                }
            }
        }
    }
    JOINT RightUpLeg
    {
        OFFSET -0.101475 0.000000 0.000000
        CHANNELS 3 Zrotation Xrotation Yrotation
        JOINT RightLeg
        {
            OFFSET -0.000000 -0.446535 0.000000
            CHANNELS 3 Zrotation Xrotation Yrotation
            JOINT RightFoot
            {
                OFFSET -0.000000 -0.400037 0.000000
                CHANNELS 3 Zrotation Xrotation Yrotation
                JOINT RightToeBase
                {
                    OFFSET -0.000000 -0.065959 0.152213
                    CHANNELS 3 Zrotation Xrotation Yrotation
                    End Site
                    {
                        OFFSET -0.000000 0.000000 0.040590
                    }
                }
            }
        }
    }
}
MOTION
Frames:    14
Frame Time:    0.008333
0.699777    0.912177    0.226655    5.701283    0.577257    -89.830246    -1.741807    12.498808    3.503392    3.525159    8.756598    0.834220    6.225975    8.466707    -4.196611    -0.070261    8.168483    -3.026335    0.969884    7.560200    -27.772360    -15.683023    48.989216    -66.388908    4.633111    -37.467297    -27.050018    -5.864037    -37.123287    13.268290    4.128247    9.888763    39.544216    29.146463    36.802719    40.412609    -16.187321    -49.363445    -0.843383    40.561783    -45.768436    14.659386    16.581942    -21.713242    6.814187    -4.944862    32.733395    4.644471    -9.912056    -11.303014    -1.107162    0.150227    2.247689    -1.426596    -13.371471    -25.907932    -4.525341    5.516041    40.473358    8.911603    5.885263    -17.987127    -16.299818    0.165193    -3.633575    2.882939    
0.699773    0.912126    0.226689    5.695708    0.574707    -89.824158    -1.756533    12.494660    3.505422    3.522832    8.767759    0.832671    6.247083    8.478664    -4.203997    0.011905    8.161580    -3.045199    1.005137    7.557178    -27.755657    -15.681277    48.977432    -66.447746    4.645710    -37.464531    -27.001554    -5.863742    -37.119404    13.261452    4.150799    9.877230    39.544716    29.129648    36.828106    40.403984    -16.176945    -49.345123    -0.825835    40.543610    -45.759995    14.616870    16.578133    -21.723873    6.815248    -4.944704    32.762333    4.638712    -9.906111    -11.312059    -1.112060    0.149056    2.243529    -1.415960    -13.378202    -25.912924    -4.527318    5.516224    40.498211    8.919206    5.881691    -17.997320    -16.312599    0.165027    -3.632853    2.880362    
0.699779    0.912074    0.226716    5.691515    0.570042    -89.816765    -1.759897    12.492907    3.502134    3.527279    8.773437    0.830931    6.253852    8.482765    -4.203513    0.005053    8.175812    -3.041714    1.012298    7.562394    -27.756121    -15.666253    48.983543    -66.467583    4.669754    -37.476444    -26.987055    -5.889842    -37.129494    13.256283    4.160543    9.873392    39.543251    29.108910    36.833801    40.418526    -16.174734    -49.310627    -0.835212    40.511009    -45.744446    14.551255    16.572243    -21.735113    6.811092    -4.948501    32.787025    4.633974    -9.899699    -11.319402    -1.104801    0.150036    2.240577    -1.425618    -13.386358    -25.918564    -4.532750    5.511456    40.521839    8.923379    5.883623    -18.007557    -16.315071    0.164884    -3.629054    2.879532    
0.699781    0.912024    0.226740    5.686587    0.570797    -89.810097    -1.756999    12.489764    3.497791    3.533690    8.781680    0.828901    6.248892    8.486358    -4.197540    0.013576    8.188486    -3.038060    1.013495    7.573786    -27.755215    -15.653018    48.980473    -66.480751    4.689625    -37.478401    -26.977774    -5.885387    -37.127995    13.267163    4.162456    9.864478    39.546589    29.095133    36.838772    40.431408    -16.169519    -49.283363    -0.848721    40.483204    -45.732391    14.501952    16.574387    -21.745581    6.817842    -4.948681    32.814541    4.627229    -9.900903    -11.330964    -1.110553    0.150060    2.241745    -1.425707    -13.388758    -25.922373    -4.531515    5.513267    40.542583    8.921285    5.883360    -18.013342    -16.321903    0.165411    -3.632687    2.887141    
0.699792    0.911981    0.226757    5.680663    0.571153    -89.799454    -1.755401    12.489855    3.493187    3.541383    8.787206    0.826627    6.250199    8.494960    -4.195621    0.015445    8.192720    -3.035707    1.012646    7.577513    -27.756296    -15.658030    48.981068    -66.479530    4.711310    -37.477192    -26.968952    -5.910599    -37.125011    13.260168    4.160408    9.857891    39.554272    29.081108    36.845131    40.443497    -16.174421    -49.262646    -0.871124    40.454609    -45.727646    14.455120    16.573854    -21.755407    6.820301    -4.946486    32.837345    4.616765    -9.902543    -11.336405    -1.113055    0.149851    2.241940    -1.423701    -13.392225    -25.923712    -4.530517    5.517236    40.562042    8.912064    5.884028    -18.021542    -16.323149    0.165198    -3.636485    2.881764    
0.699807    0.911938    0.226765    5.674805    0.573970    -89.787567    -1.750952    12.493271    3.492640    3.527770    8.781305    0.828814    6.263776    8.518928    -4.202020    0.096202    8.193982    -3.054218    1.038910    7.588022    -27.761139    -15.669924    48.965546    -66.491493    4.719889    -37.465317    -26.951607    -5.908048    -37.112087    13.266850    4.182095    9.855386    39.560249    29.063797    36.867172    40.440010    -16.184055    -49.264214    -0.894570    40.444733    -45.736610    14.440128    16.577047    -21.765169    6.822726    -4.946772    32.859154    4.599494    -9.896081    -11.343082    -1.111101    0.149584    2.239534    -1.421443    -13.392283    -25.922194    -4.536500    5.513510    40.576389    8.905931    5.888216    -18.030518    -16.318010    0.165352    -3.634903    2.885136    
0.699820    0.911896    0.226774    5.669220    0.575931    -89.776283    -1.746158    12.494578    3.493885    3.531693    8.784637    0.829024    6.239542    8.509239    -4.201687    0.175645    8.247227    -3.075299    1.039388    7.587020    -27.762598    -15.671462    48.964481    -66.496658    4.737906    -37.453129    -26.939739    -5.964692    -37.101105    13.244026    4.185002    9.847378    39.556648    29.052731    36.883041    40.452705    -16.212261    -49.261959    -0.935771    40.447216    -45.740669    14.430498    16.579056    -21.773779    6.828213    -4.944832    32.878582    4.592976    -9.897977    -11.347276    -1.119929    0.150460    2.236597    -1.430115    -13.393628    -25.920527    -4.548410    5.505210    40.590729    8.922630    5.889867    -18.041519    -16.329279    0.165334    -3.634207    2.885122    
0.699839    0.911857    0.226779    5.665035    0.579998    -89.762505    -1.739664    12.494742    3.495487    3.537612    8.787989    0.829251    6.249104    8.514012    -4.208180    0.180230    8.254731    -3.080699    1.035531    7.583914    -27.767780    -15.673656    48.964245    -66.499458    4.750650    -37.443451    -26.928928    -5.968915    -37.089802    13.244735    4.185335    9.836666    39.551422    29.055887    36.886299    40.456085    -16.225742    -49.261585    -0.966758    40.444210    -45.745384    14.424434    16.582899    -21.784822    6.838541    -4.939935    32.898479    4.567093    -9.890181    -11.355129    -1.115983    0.150064    2.238425    -1.426136    -13.394705    -25.917480    -4.563613    5.500391    40.600761    8.919934    5.888774    -18.049377    -16.322762    0.165365    -3.627319    2.888696    
0.699856    0.911821    0.226788    5.661346    0.582193    -89.749496    -1.735060    12.502668    3.499296    3.538720    8.787259    0.830342    6.264612    8.506289    -4.215973    0.189750    8.251666    -3.087820    1.031342    7.577136    -27.748724    -15.647369    48.972908    -66.541237    4.773703    -37.427013    -26.909107    -6.009606    -37.072521    13.225600    4.191979    9.824852    39.531044    29.065374    36.886253    40.459408    -16.232653    -49.255817    -0.983090    40.442131    -45.741455    14.422917    16.583015    -21.793219    6.846732    -4.932361    32.912777    4.555501    -9.890628    -11.359060    -1.127100    0.149792    2.239312    -1.423449    -13.399118    -25.915211    -4.570745    5.505818    40.610359    8.909866    5.886589    -18.051826    -16.324453    0.165658    -3.628185    2.893433    
0.699879    0.911802    0.226795    5.658043    0.582474    -89.736931    -1.731587    12.502989    3.504821    3.537591    8.788700    0.832574    6.261644    8.498472    -4.221128    0.251347    8.299899    -3.106550    1.032669    7.572774    -27.753639    -15.642675    48.971703    -66.553322    4.791385    -37.410591    -26.890703    -6.044078    -37.056129    13.217747    4.196873    9.816667    39.525291    29.082787    36.876202    40.442036    -16.227114    -49.260597    -0.993911    40.476315    -45.734283    14.460627    16.581818    -21.799700    6.857031    -4.925529    32.921936    4.529610    -9.884521    -11.362135    -1.124211    0.149867    2.239208    -1.424172    -13.403681    -25.913923    -4.584988    5.500011    40.619312    8.914751    5.890567    -18.055063    -16.321796    0.165357    -3.630683    2.887070    
0.699905    0.911787    0.226795    5.656614    0.583116    -89.725555    -1.726991    12.501792    3.509722    3.537004    8.789875    0.834399    6.273489    8.506097    -4.226892    0.264380    8.304927    -3.112245    1.031260    7.569406    -27.754992    -15.640254    48.970264    -66.560951    4.808233    -37.391846    -26.877413    -6.094034    -37.038109    13.192200    4.193151    9.810216    39.527828    29.102871    36.868557    40.426033    -16.237938    -49.277245    -1.018552    40.528698    -45.737606    14.505471    16.580988    -21.806339    6.859859    -4.921460    32.927738    4.509144    -9.884492    -11.364561    -1.117618    0.149871    2.243698    -1.423687    -13.408763    -25.914297    -4.582850    5.511826    40.626221    8.912508    5.886895    -18.057877    -16.335608    0.164828    -3.631422    2.877512    
0.699932    0.911779    0.226805    5.655262    0.581480    -89.714508    -1.720217    12.509002    3.514552    3.533117    8.793327    0.836492    6.283250    8.481042    -4.233631    0.265257    8.320392    -3.118752    1.020678    7.554158    -27.731316    -15.615711    48.979481    -66.595963    4.819444    -37.366764    -26.873596    -6.118010    -37.012924    13.187814    4.192475    9.799920    39.508850    29.116323    36.862152    40.431137    -16.250750    -49.290329    -1.043331    40.559528    -45.739090    14.550811    16.575388    -21.811611    6.861005    -4.915122    32.929585    4.503560    -9.886378    -11.361927    -1.125945    0.150240    2.243580    -1.427205    -13.415400    -25.914066    -4.596778    5.508043    40.633049    8.906865    5.891421    -18.061148    -16.329647    0.165330    -3.631155    2.886401    
0.699949    0.911777    0.226813    5.652344    0.578168    -89.702759    -1.717121    12.507931    3.520969    3.529117    8.798688    0.838942    6.283894    8.469559    -4.240171    0.307018    8.361493    -3.134440    1.021114    7.546483    -27.728298    -15.610545    48.975563    -66.608849    4.826776    -37.345058    -26.868965    -6.181739    -36.994377    13.155820    4.189984    9.799162    39.503944    29.121744    36.857399    40.426933    -16.271423    -49.320740    -1.082325    40.656300    -45.743084    14.637299    16.567661    -21.811979    6.856595    -4.912867    32.925369    4.494281    -9.879382    -11.358854    -1.124220    0.150237    2.247174    -1.426754    -13.424728    -25.908972    -4.604384    5.511718    40.634563    8.908807    5.887784    -18.064259    -16.336231    0.165218    -3.627698    2.885962    
0.699963    0.911782    0.226813    5.647626    0.575327    -89.695755    -1.715387    12.508122    3.531498    3.528899    8.807596    0.842197    6.284761    8.464996    -4.246624    0.328700    8.368453    -3.145513    1.021068    7.532001    -27.726204    -15.602939    48.975204    -66.622803    4.827022    -37.324013    -26.873436    -6.220218    -36.975418    13.128835    4.184384    9.785707    39.499359    29.147005    36.854778    40.410355    -16.290379    -49.352360    -1.113405    40.733261    -45.751152    14.717346    16.563150    -21.808020    6.855643    -4.912671    32.919388    4.490123    -9.877377    -11.354499    -1.125129    0.150566    2.248033    -1.429778    -13.429504    -25.901911    -4.610830    5.508531    40.633011    8.919298    5.889159    -18.069643    -16.341784    0.164659    -3.624318    2.877680    
